<svg width="34" height="34" viewBox="0 0 34 34" fill="none" xmlns="http://www.w3.org/2000/svg">
<rect width="34" height="34" rx="2" fill="#ECF6FF"/>
<path d="M17 9.5C16.0151 9.5 15.0398 9.69399 14.1299 10.0709C13.22 10.4478 12.3932 11.0003 11.6967 11.6967C10.2902 13.1032 9.50002 15.0109 9.50002 17C9.49346 18.7319 10.0931 20.4114 11.195 21.7475L9.69502 23.2475C9.59095 23.353 9.52046 23.4869 9.49243 23.6324C9.4644 23.7779 9.48009 23.9284 9.53752 24.065C9.59981 24.1999 9.7008 24.3133 9.82766 24.3908C9.95451 24.4682 10.1015 24.5063 10.25 24.5H17C18.9891 24.5 20.8968 23.7098 22.3033 22.3033C23.7098 20.8968 24.5 18.9891 24.5 17C24.5 15.0109 23.7098 13.1032 22.3033 11.6967C20.8968 10.2902 18.9891 9.5 17 9.5V9.5ZM17 23H12.0575L12.755 22.3025C12.8947 22.162 12.9731 21.9719 12.9731 21.7737C12.9731 21.5756 12.8947 21.3855 12.755 21.245C11.773 20.264 11.1614 18.9729 11.0245 17.5916C10.8877 16.2103 11.234 14.8243 12.0044 13.6696C12.7749 12.515 13.9219 11.6633 15.2499 11.2595C16.578 10.8557 18.0049 10.9249 19.2877 11.4552C20.5705 11.9855 21.6297 12.9442 22.2849 14.1679C22.94 15.3916 23.1507 16.8047 22.8809 18.1663C22.6111 19.5279 21.8775 20.7538 20.8052 21.6352C19.7328 22.5166 18.3881 22.9989 17 23V23ZM20.75 16.25H13.25C13.0511 16.25 12.8603 16.329 12.7197 16.4697C12.579 16.6103 12.5 16.8011 12.5 17C12.5 17.1989 12.579 17.3897 12.7197 17.5303C12.8603 17.671 13.0511 17.75 13.25 17.75H20.75C20.9489 17.75 21.1397 17.671 21.2804 17.5303C21.421 17.3897 21.5 17.1989 21.5 17C21.5 16.8011 21.421 16.6103 21.2804 16.4697C21.1397 16.329 20.9489 16.25 20.75 16.25ZM19.25 19.25H14.75C14.5511 19.25 14.3603 19.329 14.2197 19.4697C14.079 19.6103 14 19.8011 14 20C14 20.1989 14.079 20.3897 14.2197 20.5303C14.3603 20.671 14.5511 20.75 14.75 20.75H19.25C19.4489 20.75 19.6397 20.671 19.7804 20.5303C19.921 20.3897 20 20.1989 20 20C20 19.8011 19.921 19.6103 19.7804 19.4697C19.6397 19.329 19.4489 19.25 19.25 19.25ZM14.75 14.75H19.25C19.4489 14.75 19.6397 14.671 19.7804 14.5303C19.921 14.3897 20 14.1989 20 14C20 13.8011 19.921 13.6103 19.7804 13.4697C19.6397 13.329 19.4489 13.25 19.25 13.25H14.75C14.5511 13.25 14.3603 13.329 14.2197 13.4697C14.079 13.6103 14 13.8011 14 14C14 14.1989 14.079 14.3897 14.2197 14.5303C14.3603 14.671 14.5511 14.75 14.75 14.75V14.75Z" fill="#5E93D1"/>
</svg>
