<svg width="34" height="34" viewBox="0 0 34 34" fill="none" xmlns="http://www.w3.org/2000/svg">
<rect width="34" height="34" rx="2" fill="#ECF6FF"/>
<path d="M22.9934 9.50146C22.8949 9.50141 22.7973 9.52077 22.7063 9.55844C22.6153 9.59611 22.5326 9.65135 22.463 9.72101C22.3933 9.79066 22.3381 9.87337 22.3004 9.96439C22.2627 10.0554 22.2434 10.153 22.2434 10.2515V10.729C21.6109 11.5133 20.8114 12.1466 19.9032 12.583C18.995 13.0194 18.001 13.2477 16.9934 13.2515H12.4934C11.8969 13.2521 11.325 13.4894 10.9031 13.9112C10.4813 14.333 10.2441 14.9049 10.2434 15.5015V17.0015C10.2441 17.598 10.4813 18.1699 10.9031 18.5917C11.325 19.0136 11.8969 19.2508 12.4934 19.2515H12.8563L11.0542 23.4563C11.0052 23.5703 10.9853 23.6947 10.9963 23.8184C11.0073 23.942 11.0489 24.061 11.1172 24.1646C11.1855 24.2682 11.2785 24.3532 11.3878 24.412C11.4971 24.4708 11.6193 24.5016 11.7434 24.5015H14.7434C14.8902 24.5016 15.0338 24.4585 15.1564 24.3776C15.2789 24.2968 15.375 24.1817 15.4326 24.0466L17.4754 19.28C18.3984 19.3477 19.2977 19.604 20.1178 20.0329C20.9378 20.4618 21.6613 21.0543 22.2434 21.7738V22.2515C22.2434 22.4504 22.3224 22.6411 22.4631 22.7818C22.6037 22.9224 22.7945 23.0015 22.9934 23.0015C23.1923 23.0015 23.3831 22.9224 23.5237 22.7818C23.6644 22.6411 23.7434 22.4504 23.7434 22.2515V10.2515C23.7435 10.153 23.7241 10.0554 23.6864 9.96438C23.6488 9.87336 23.5935 9.79066 23.5239 9.72101C23.4542 9.65135 23.3715 9.59611 23.2805 9.55844C23.1895 9.52077 23.0919 9.50141 22.9934 9.50146V9.50146ZM12.4934 17.7515C12.2945 17.7513 12.1038 17.6723 11.9632 17.5316C11.8226 17.391 11.7435 17.2003 11.7434 17.0015V15.5015C11.7435 15.3026 11.8226 15.1119 11.9632 14.9713C12.1039 14.8307 12.2945 14.7516 12.4934 14.7515H13.2434V17.7515H12.4934ZM14.249 23.0015H12.8809L14.4878 19.2515H15.856L14.249 23.0015ZM22.2434 19.6428C20.7646 18.4245 18.9094 17.7562 16.9934 17.7514H14.7434V14.7514H16.9934C18.9094 14.7465 20.7646 14.078 22.2434 12.8597V19.6428Z" fill="#5E93D1"/>
</svg>
