<svg width="34" height="34" viewBox="0 0 34 34" fill="none" xmlns="http://www.w3.org/2000/svg">
<rect width="34" height="34" rx="2" fill="#ECF6FF"/>
<path d="M24.44 16.7C22.925 13.1825 20.075 11 17 11C13.925 11 11.075 13.1825 9.55999 16.7C9.51869 16.7946 9.49738 16.8968 9.49738 17C9.49738 17.1032 9.51869 17.2054 9.55999 17.3C11.075 20.8175 13.925 23 17 23C20.075 23 22.925 20.8175 24.44 17.3C24.4813 17.2054 24.5026 17.1032 24.5026 17C24.5026 16.8968 24.4813 16.7946 24.44 16.7V16.7ZM17 21.5C14.6225 21.5 12.3725 19.7825 11.075 17C12.3725 14.2175 14.6225 12.5 17 12.5C19.3775 12.5 21.6275 14.2175 22.925 17C21.6275 19.7825 19.3775 21.5 17 21.5ZM17 14C16.4066 14 15.8266 14.1759 15.3333 14.5056C14.8399 14.8352 14.4554 15.3038 14.2284 15.8519C14.0013 16.4001 13.9419 17.0033 14.0576 17.5853C14.1734 18.1672 14.4591 18.7018 14.8787 19.1213C15.2982 19.5409 15.8328 19.8266 16.4147 19.9424C16.9967 20.0581 17.5999 19.9987 18.148 19.7716C18.6962 19.5446 19.1648 19.1601 19.4944 18.6667C19.824 18.1734 20 17.5933 20 17C20 16.2044 19.6839 15.4413 19.1213 14.8787C18.5587 14.3161 17.7956 14 17 14V14ZM17 18.5C16.7033 18.5 16.4133 18.412 16.1666 18.2472C15.92 18.0824 15.7277 17.8481 15.6142 17.574C15.5006 17.2999 15.4709 16.9983 15.5288 16.7074C15.5867 16.4164 15.7296 16.1491 15.9393 15.9393C16.1491 15.7296 16.4164 15.5867 16.7074 15.5288C16.9983 15.4709 17.2999 15.5006 17.574 15.6142C17.8481 15.7277 18.0824 15.92 18.2472 16.1666C18.412 16.4133 18.5 16.7033 18.5 17C18.5 17.3978 18.342 17.7794 18.0606 18.0607C17.7793 18.342 17.3978 18.5 17 18.5Z" fill="#5E93D1"/>
</svg>
